<svg width="72" height="15" viewBox="0 0 72 15" fill="none" xmlns="http://www.w3.org/2000/svg">
<path d="M4.47692 0.757446H7.59327C8.27571 0.757446 8.89337 0.857869 9.44623 1.05872C9.9991 1.26172 10.4699 1.53923 10.8586 1.89125C11.2474 2.24111 11.5465 2.65036 11.756 3.119C11.9654 3.5898 12.0702 4.0876 12.0702 4.61239V10.7673C12.0702 11.2943 11.9654 11.7921 11.756 12.2607C11.5465 12.7294 11.2474 13.1397 10.8586 13.4917C10.4699 13.8416 9.9991 14.118 9.44623 14.321C8.89337 14.524 8.27571 14.6255 7.59327 14.6255H4.47692C3.79447 14.6255 3.17682 14.524 2.62395 14.321C2.07109 14.118 1.60029 13.8416 1.21155 13.4917C0.82282 13.1397 0.523711 12.7294 0.314227 12.2607C0.104742 11.7921 0 11.2943 0 10.7673V4.61239C0 4.0876 0.104742 3.5898 0.314227 3.119C0.523711 2.65036 0.82282 2.24111 1.21155 1.89125C1.60029 1.53923 2.07109 1.26172 2.62395 1.05872C3.17682 0.857869 3.79447 0.757446 4.47692 0.757446ZM9.49807 8.40902V6.87029L9.35553 5.99887L8.70764 5.36394L7.65482 5.25056H5.3872L4.76847 5.1307C4.73607 5.01624 4.7134 4.91258 4.70044 4.81972C4.68532 4.72901 4.66157 4.63291 4.62917 4.5314V3.46887L4.76847 2.87281L5.43903 2.73999H8.00792L8.96032 2.93436L9.20328 1.8297L8.03059 1.66773H5.36777L4.35382 1.81027L3.69621 2.45816L3.56663 3.30689V4.69338L3.69621 5.54535L4.35382 6.18352L5.36777 6.3131H7.65482L8.27355 6.41676C8.29299 6.51611 8.31675 6.61005 8.34482 6.6986C8.37074 6.78714 8.39341 6.87785 8.41285 6.97071V8.29888C8.39989 8.38527 8.3783 8.47921 8.34806 8.58072C8.31783 8.68222 8.29299 8.77724 8.27355 8.86579L7.61594 8.96621H5.10537L4.11086 8.80424L3.85818 9.89917L5.04382 10.0385H7.67425L8.70764 9.91861L9.35553 9.28044L9.49807 8.40902ZM16.4629 0.757446H19.5792C20.2617 0.757446 20.8793 0.857869 21.4322 1.05872C21.9851 1.26172 22.4559 1.53923 22.8446 1.89125C23.2333 2.24111 23.5324 2.65036 23.7419 3.119C23.9514 3.5898 24.0561 4.0876 24.0561 4.61239V10.7673C24.0561 11.2943 23.9514 11.7921 23.7419 12.2607C23.5324 12.7294 23.2333 13.1397 22.8446 13.4917C22.4559 13.8416 21.9851 14.118 21.4322 14.321C20.8793 14.524 20.2617 14.6255 19.5792 14.6255H16.4629C15.7804 14.6255 15.1628 14.524 14.6099 14.321C14.0571 14.118 13.5863 13.8416 13.1975 13.4917C12.8088 13.1397 12.5097 12.7294 12.3002 12.2607C12.0929 11.7921 11.9892 11.2943 11.9892 10.7673V4.61239C11.9892 4.0876 12.0929 3.5898 12.3002 3.119C12.5097 2.65036 12.8088 2.24111 13.1975 1.89125C13.5863 1.53923 14.0571 1.26172 14.6099 1.05872C15.1628 0.857869 15.7804 0.757446 16.4629 0.757446ZM21.4419 5.42225V3.30689L21.3026 2.45816L20.6547 1.81027L19.6213 1.66773H15.8441V10.0385H16.897V7.0517H19.6213L20.6547 6.93184L21.3026 6.29366L21.4419 5.42225ZM20.3599 5.31211L20.2174 5.87902L19.5598 5.97944H16.897V2.73999H19.5598L20.2595 2.85337L20.3599 3.44943V5.31211ZM30.0265 8.96621H27.639V10.0385H33.4894V8.96621H31.1117V2.73999H33.4894V1.66773H27.639V2.73999H30.0265V8.96621ZM28.4488 0.757446H31.5652C32.2476 0.757446 32.8653 0.857869 33.4182 1.05872C33.971 1.26172 34.4418 1.53923 34.8306 1.89125C35.2193 2.24111 35.5184 2.65036 35.7279 3.119C35.9374 3.5898 36.0421 4.0876 36.0421 4.61239V10.7673C36.0421 11.2943 35.9374 11.7921 35.7279 12.2607C35.5184 12.7294 35.2193 13.1397 34.8306 13.4917C34.4418 13.8416 33.971 14.118 33.4182 14.321C32.8653 14.524 32.2476 14.6255 31.5652 14.6255H28.4488C27.7664 14.6255 27.1487 14.524 26.5959 14.321C26.043 14.118 25.5722 13.8416 25.1835 13.4917C24.7947 13.1397 24.4956 12.7294 24.2861 12.2607C24.0788 11.7921 23.9752 11.2943 23.9752 10.7673V4.61239C23.9752 4.0876 24.0788 3.5898 24.2861 3.119C24.4956 2.65036 24.7947 2.24111 25.1835 1.89125C25.5722 1.53923 26.043 1.26172 26.5959 1.05872C27.1487 0.857869 27.7664 0.757446 28.4488 0.757446ZM40.4348 0.757446H43.5512C44.2336 0.757446 44.8513 0.857869 45.4041 1.05872C45.957 1.26172 46.4278 1.53923 46.8165 1.89125C47.2053 2.24111 47.5044 2.65036 47.7139 3.119C47.9233 3.5898 48.0281 4.0876 48.0281 4.61239V10.7673C48.0281 11.2943 47.9233 11.7921 47.7139 12.2607C47.5044 12.7294 47.2053 13.1397 46.8165 13.4917C46.4278 13.8416 45.957 14.118 45.4041 14.321C44.8513 14.524 44.2336 14.6255 43.5512 14.6255H40.4348C39.7524 14.6255 39.1347 14.524 38.5818 14.321C38.029 14.118 37.5582 13.8416 37.1694 13.4917C36.7807 13.1397 36.4816 12.7294 36.2721 12.2607C36.0648 11.7921 35.9611 11.2943 35.9611 10.7673V4.61239C35.9611 4.0876 36.0648 3.5898 36.2721 3.119C36.4816 2.65036 36.7807 2.24111 37.1694 1.89125C37.5582 1.53923 38.029 1.26172 38.5818 1.05872C39.1347 0.857869 39.7524 0.757446 40.4348 0.757446ZM43.9172 6.99339L44.0695 7.53761V10.0385H45.1417V7.42747L44.7886 6.49775L43.6321 6.07986L44.7465 5.54535L45.0607 4.63507V3.51098L44.9376 2.659L44.2703 1.81027L43.2596 1.66773H39.4824V10.0385H40.5644V6.66944H43.1981L43.9172 6.99339ZM40.5644 2.73999H43.1981L43.9172 3.05422L43.9885 3.64056V4.71605L43.8362 5.27L43.1981 5.58423H40.5644V2.73999ZM55.7801 9.91861L56.7843 10.0287V7.72226V3.28746V2.43548L56.0943 1.78759L55.0836 1.66773H52.7739L51.5915 1.81027L51.8441 2.91168L52.7933 2.72055H55.0512L55.6602 2.85337L55.8028 3.38788V5.7462L55.0836 5.62634H52.7739L51.7632 5.77859L51.1153 6.41676L50.9727 7.24606V8.42846L51.1153 9.28044L51.7632 9.91861L52.7739 10.0385H54.9929L55.7801 9.91861ZM55.8028 8.31832V8.86579L55.0123 8.96621H52.8354L52.1972 8.86579L52.0547 8.25677V7.3886L52.1357 6.80874L52.8354 6.70831H55.0318L55.8028 6.7893V8.31832ZM52.4208 0.757446H55.5371C56.2196 0.757446 56.8372 0.857869 57.3901 1.05872C57.943 1.26172 58.4138 1.53923 58.8025 1.89125C59.1912 2.24111 59.4903 2.65036 59.6998 3.119C59.9093 3.5898 60.014 4.0876 60.014 4.61239V10.7673C60.014 11.2943 59.9093 11.7921 59.6998 12.2607C59.4903 12.7294 59.1912 13.1397 58.8025 13.4917C58.4138 13.8416 57.943 14.118 57.3901 14.321C56.8372 14.524 56.2196 14.6255 55.5371 14.6255H52.4208C51.7383 14.6255 51.1207 14.524 50.5678 14.321C50.0149 14.118 49.5441 13.8416 49.1554 13.4917C48.7667 13.1397 48.4676 12.7294 48.2581 12.2607C48.0508 11.7921 47.9471 11.2943 47.9471 10.7673V4.61239C47.9471 4.0876 48.0508 3.5898 48.2581 3.119C48.4676 2.65036 48.7667 2.24111 49.1554 1.89125C49.5441 1.53923 50.0149 1.26172 50.5678 1.05872C51.1207 0.857869 51.7383 0.757446 52.4208 0.757446ZM69.4084 10.0385V3.28746L69.2659 2.43548L68.618 1.78759L67.5846 1.66773H65.0546L63.2308 1.92041V10.0385H64.3063V2.85337L65.0935 2.72055H67.5231L68.2228 2.83069L68.3232 3.42999V10.0385H69.4084ZM64.4067 0.757446H67.5231C68.2055 0.757446 68.8232 0.857869 69.376 1.05872C69.9289 1.26172 70.3997 1.53923 70.7884 1.89125C71.1772 2.24111 71.4763 2.65036 71.6858 3.119C71.8953 3.5898 72 4.0876 72 4.61239V10.7673C72 11.2943 71.8953 11.7921 71.6858 12.2607C71.4763 12.7294 71.1772 13.1397 70.7884 13.4917C70.3997 13.8416 69.9289 14.118 69.376 14.321C68.8232 14.524 68.2055 14.6255 67.5231 14.6255H64.4067C63.7243 14.6255 63.1066 14.524 62.5538 14.321C62.0009 14.118 61.5301 13.8416 61.1414 13.4917C60.7526 13.1397 60.4535 12.7294 60.244 12.2607C60.0367 11.7921 59.9331 11.2943 59.9331 10.7673V4.61239C59.9331 4.0876 60.0367 3.5898 60.244 3.119C60.4535 2.65036 60.7526 2.24111 61.1414 1.89125C61.5301 1.53923 62.0009 1.26172 62.5538 1.05872C63.1066 0.857869 63.7243 0.757446 64.4067 0.757446Z" fill="url(#paint0_linear_1005_231)"/>
<defs>
<linearGradient id="paint0_linear_1005_231" x1="0" y1="7.69149" x2="72" y2="7.69149" gradientUnits="userSpaceOnUse">
<stop stop-color="#D3E0EA"/>
<stop offset="1" stop-color="#BBCEDD"/>
</linearGradient>
</defs>
</svg>
